<svg width="18" height="21" viewBox="0 0 18 21" fill="none" xmlns="http://www.w3.org/2000/svg">
<path d="M13 1.10034V5.11327M5 1.10034V5.11327M1 9.12621H17M4 12.1359H4.013M7.00977 12.1359H7.01477M10.0098 12.1359H10.0148M13.0151 12.1359H13.0201M10.0151 15.1456H10.0201M4.00977 15.1456H4.01477M7.00977 15.1456H7.01477M1 5.11327C1 4.58113 1.21071 4.07077 1.58579 3.69449C1.96086 3.3182 2.46957 3.10681 3 3.10681H15C15.5304 3.10681 16.0391 3.3182 16.4142 3.69449C16.7893 4.07077 17 4.58113 17 5.11327V17.1521C17 17.6842 16.7893 18.1946 16.4142 18.5709C16.0391 18.9471 15.5304 19.1585 15 19.1585H3C2.46957 19.1585 1.96086 18.9471 1.58579 18.5709C1.21071 18.1946 1 17.6842 1 17.1521V5.11327Z" stroke="#EE6829" stroke-width="2" stroke-linecap="round" stroke-linejoin="round"/>
</svg>
